# xmcd CD database file
#
# Track frame offsets:
#	150
#	21951
#	40421
#	64269
#	83249
#	109272
#	136199
#	155723
#	169367
#	180800
#	194360
#	207963
#	219657
#	231231
#	244302
#	257716
#	274580
#	289886
#	305409
#	321610
#
# Disc length: 4530 seconds
#
# Revision: 0
# Processed by: cddbd v1.5.2PL0 Copyright (c) Steve Scherf et al.
# Submitted via: CDex 1.70beta2
#
DISCID=3411b014
DTITLE=Fats Navarro - Bebop Story Vol 5 1948-49 CD 037
DYEAR=2008
DGENRE=Jazz
TTITLE0=Anthropology
TTITLE1=Our Delight
TTITLE2=The Tadd Walk
TTITLE3=Our Delight
TTITLE4=Good Bait
TTITLE5=Eb-Pob
TTITLE6=The Squirrel
TTITLE7=Guilty
TTITLE8=Yardbird Suite ( A Bebop Ballad)
TTITLE9=A Stranger In Twon
TTITLE10=As Times go By
TTITLE11=Move
TTITLE12=Move
TTITLE13=Sid's Delight
TTITLE14=Casbah
TTITLE15=Wailing Wall
TTITLE16=Go
TTITLE17=Go
TTITLE18=Infatuation
TTITLE19=Stop
EXTD=YEAR: 2008
EXTT0=
EXTT1=
EXTT2=
EXTT3=
EXTT4=
EXTT5=
EXTT6=
EXTT7=
EXTT8=
EXTT9=
EXTT10=
EXTT11=
EXTT12=
EXTT13=
EXTT14=
EXTT15=
EXTT16=
EXTT17=
EXTT18=
EXTT19=
PLAYORDER=
